<mxfile host="app.diagrams.net" modified="2024-03-27T13:02:56.603Z" agent="Mozilla/5.0 (Windows NT 10.0; Win64; x64) AppleWebKit/537.36 (KHTML, like Gecko) Chrome/123.0.0.0 Safari/537.36" version="24.2.0" etag="fAtKnk--jAD7n0dVJ2mX" type="device">
  <diagram id="RupK30_QOKIHTWYNKsnj" name="Page-1">
    <mxGraphModel dx="1050" dy="565" grid="1" gridSize="10" guides="1" tooltips="1" connect="1" arrows="1" fold="1" page="1" pageScale="1" pageWidth="1100" pageHeight="850" math="0" shadow="0">
      <root>
        <mxCell id="0" />
        <mxCell id="1" parent="0" />
        <mxCell id="_X0evLW4YxpcTR7IITM4-3" style="edgeStyle=orthogonalEdgeStyle;rounded=0;orthogonalLoop=1;jettySize=auto;html=1;entryX=0;entryY=0.5;entryDx=0;entryDy=0;" edge="1" parent="1" source="_X0evLW4YxpcTR7IITM4-1" target="_X0evLW4YxpcTR7IITM4-2">
          <mxGeometry relative="1" as="geometry" />
        </mxCell>
        <mxCell id="_X0evLW4YxpcTR7IITM4-1" value="&lt;font style=&quot;font-size: 14px;&quot;&gt;&lt;b&gt;Registration&lt;/b&gt;&lt;/font&gt;" style="rounded=0;whiteSpace=wrap;html=1;fillColor=#b1ddf0;strokeColor=#10739e;" vertex="1" parent="1">
          <mxGeometry x="70" y="80" width="110" height="50" as="geometry" />
        </mxCell>
        <mxCell id="_X0evLW4YxpcTR7IITM4-6" value="" style="edgeStyle=orthogonalEdgeStyle;rounded=0;orthogonalLoop=1;jettySize=auto;html=1;" edge="1" parent="1" source="_X0evLW4YxpcTR7IITM4-2" target="_X0evLW4YxpcTR7IITM4-4">
          <mxGeometry relative="1" as="geometry" />
        </mxCell>
        <mxCell id="_X0evLW4YxpcTR7IITM4-48" style="edgeStyle=orthogonalEdgeStyle;rounded=0;orthogonalLoop=1;jettySize=auto;html=1;entryX=0;entryY=0.25;entryDx=0;entryDy=0;" edge="1" parent="1" source="_X0evLW4YxpcTR7IITM4-2" target="_X0evLW4YxpcTR7IITM4-43">
          <mxGeometry relative="1" as="geometry">
            <Array as="points">
              <mxPoint x="295" y="163" />
            </Array>
          </mxGeometry>
        </mxCell>
        <mxCell id="_X0evLW4YxpcTR7IITM4-2" value="&lt;font style=&quot;font-size: 14px;&quot;&gt;&lt;b&gt;Login&lt;/b&gt;&lt;/font&gt;" style="rounded=0;whiteSpace=wrap;html=1;fillColor=#b1ddf0;strokeColor=#10739e;" vertex="1" parent="1">
          <mxGeometry x="240" y="80" width="110" height="50" as="geometry" />
        </mxCell>
        <mxCell id="_X0evLW4YxpcTR7IITM4-27" value="" style="edgeStyle=orthogonalEdgeStyle;rounded=0;orthogonalLoop=1;jettySize=auto;html=1;" edge="1" parent="1" source="_X0evLW4YxpcTR7IITM4-4" target="_X0evLW4YxpcTR7IITM4-23">
          <mxGeometry relative="1" as="geometry">
            <Array as="points">
              <mxPoint x="555" y="100" />
              <mxPoint x="555" y="103" />
            </Array>
          </mxGeometry>
        </mxCell>
        <mxCell id="_X0evLW4YxpcTR7IITM4-4" value="&lt;b&gt;&lt;font style=&quot;font-size: 14px;&quot;&gt;Create contest&lt;/font&gt;&lt;/b&gt;" style="rounded=0;whiteSpace=wrap;html=1;fillColor=#dae8fc;strokeColor=#6c8ebf;" vertex="1" parent="1">
          <mxGeometry x="410" y="80" width="120" height="50" as="geometry" />
        </mxCell>
        <mxCell id="_X0evLW4YxpcTR7IITM4-31" value="" style="edgeStyle=orthogonalEdgeStyle;rounded=0;orthogonalLoop=1;jettySize=auto;html=1;" edge="1" parent="1" source="_X0evLW4YxpcTR7IITM4-13" target="_X0evLW4YxpcTR7IITM4-30">
          <mxGeometry relative="1" as="geometry" />
        </mxCell>
        <mxCell id="_X0evLW4YxpcTR7IITM4-13" value="&lt;b&gt;&lt;font style=&quot;font-size: 14px;&quot;&gt;Notification&lt;/font&gt;&lt;/b&gt;" style="rounded=0;whiteSpace=wrap;html=1;fillColor=#dae8fc;strokeColor=#6c8ebf;" vertex="1" parent="1">
          <mxGeometry x="920" y="80" width="120" height="50" as="geometry" />
        </mxCell>
        <mxCell id="_X0evLW4YxpcTR7IITM4-22" value="&lt;span style=&quot;font-size: 14px;&quot;&gt;&lt;b&gt;Participant Profile updated&lt;/b&gt;&lt;/span&gt;" style="rounded=0;whiteSpace=wrap;html=1;fillColor=#dae8fc;strokeColor=#6c8ebf;" vertex="1" parent="1">
          <mxGeometry x="920" y="400" width="120" height="40" as="geometry" />
        </mxCell>
        <mxCell id="_X0evLW4YxpcTR7IITM4-28" value="" style="edgeStyle=orthogonalEdgeStyle;rounded=0;orthogonalLoop=1;jettySize=auto;html=1;" edge="1" parent="1" source="_X0evLW4YxpcTR7IITM4-23" target="_X0evLW4YxpcTR7IITM4-26">
          <mxGeometry relative="1" as="geometry" />
        </mxCell>
        <mxCell id="_X0evLW4YxpcTR7IITM4-40" value="" style="edgeStyle=orthogonalEdgeStyle;rounded=0;orthogonalLoop=1;jettySize=auto;html=1;" edge="1" parent="1" source="_X0evLW4YxpcTR7IITM4-23" target="_X0evLW4YxpcTR7IITM4-39">
          <mxGeometry relative="1" as="geometry" />
        </mxCell>
        <mxCell id="_X0evLW4YxpcTR7IITM4-42" style="edgeStyle=orthogonalEdgeStyle;rounded=0;orthogonalLoop=1;jettySize=auto;html=1;entryX=0.5;entryY=0;entryDx=0;entryDy=0;" edge="1" parent="1" source="_X0evLW4YxpcTR7IITM4-23" target="_X0evLW4YxpcTR7IITM4-41">
          <mxGeometry relative="1" as="geometry">
            <Array as="points">
              <mxPoint x="660" y="140" />
              <mxPoint x="780" y="140" />
            </Array>
          </mxGeometry>
        </mxCell>
        <mxCell id="_X0evLW4YxpcTR7IITM4-23" value="&lt;b&gt;&lt;font style=&quot;font-size: 14px;&quot;&gt;Admin approval&lt;/font&gt;&lt;/b&gt;" style="rounded=0;whiteSpace=wrap;html=1;fillColor=#dae8fc;strokeColor=#6c8ebf;" vertex="1" parent="1">
          <mxGeometry x="580" y="80" width="120" height="45" as="geometry" />
        </mxCell>
        <mxCell id="_X0evLW4YxpcTR7IITM4-29" value="" style="edgeStyle=orthogonalEdgeStyle;rounded=0;orthogonalLoop=1;jettySize=auto;html=1;" edge="1" parent="1" source="_X0evLW4YxpcTR7IITM4-26" target="_X0evLW4YxpcTR7IITM4-13">
          <mxGeometry relative="1" as="geometry" />
        </mxCell>
        <mxCell id="_X0evLW4YxpcTR7IITM4-26" value="&lt;b&gt;&lt;font style=&quot;font-size: 14px;&quot;&gt;Launch&lt;/font&gt;&lt;/b&gt;" style="rounded=0;whiteSpace=wrap;html=1;fillColor=#dae8fc;strokeColor=#6c8ebf;" vertex="1" parent="1">
          <mxGeometry x="730" y="82.5" width="120" height="45" as="geometry" />
        </mxCell>
        <mxCell id="_X0evLW4YxpcTR7IITM4-33" value="" style="edgeStyle=orthogonalEdgeStyle;rounded=0;orthogonalLoop=1;jettySize=auto;html=1;" edge="1" parent="1" source="_X0evLW4YxpcTR7IITM4-30" target="_X0evLW4YxpcTR7IITM4-32">
          <mxGeometry relative="1" as="geometry" />
        </mxCell>
        <mxCell id="_X0evLW4YxpcTR7IITM4-30" value="&lt;b&gt;&lt;font style=&quot;font-size: 14px;&quot;&gt;Participate&lt;/font&gt;&lt;/b&gt;" style="rounded=0;whiteSpace=wrap;html=1;fillColor=#dae8fc;strokeColor=#6c8ebf;" vertex="1" parent="1">
          <mxGeometry x="920" y="160" width="120" height="40" as="geometry" />
        </mxCell>
        <mxCell id="_X0evLW4YxpcTR7IITM4-35" value="" style="edgeStyle=orthogonalEdgeStyle;rounded=0;orthogonalLoop=1;jettySize=auto;html=1;" edge="1" parent="1" source="_X0evLW4YxpcTR7IITM4-32" target="_X0evLW4YxpcTR7IITM4-34">
          <mxGeometry relative="1" as="geometry" />
        </mxCell>
        <mxCell id="_X0evLW4YxpcTR7IITM4-32" value="&lt;span style=&quot;font-size: 14px;&quot;&gt;&lt;b&gt;Start Contest&lt;/b&gt;&lt;/span&gt;" style="rounded=0;whiteSpace=wrap;html=1;fillColor=#dae8fc;strokeColor=#6c8ebf;" vertex="1" parent="1">
          <mxGeometry x="920" y="220" width="120" height="40" as="geometry" />
        </mxCell>
        <mxCell id="_X0evLW4YxpcTR7IITM4-37" value="" style="edgeStyle=orthogonalEdgeStyle;rounded=0;orthogonalLoop=1;jettySize=auto;html=1;" edge="1" parent="1" source="_X0evLW4YxpcTR7IITM4-34" target="_X0evLW4YxpcTR7IITM4-36">
          <mxGeometry relative="1" as="geometry" />
        </mxCell>
        <mxCell id="_X0evLW4YxpcTR7IITM4-34" value="&lt;span style=&quot;font-size: 14px;&quot;&gt;&lt;b&gt;Leaderboard&lt;/b&gt;&lt;/span&gt;" style="rounded=0;whiteSpace=wrap;html=1;fillColor=#dae8fc;strokeColor=#6c8ebf;" vertex="1" parent="1">
          <mxGeometry x="920" y="280" width="120" height="40" as="geometry" />
        </mxCell>
        <mxCell id="_X0evLW4YxpcTR7IITM4-38" value="" style="edgeStyle=orthogonalEdgeStyle;rounded=0;orthogonalLoop=1;jettySize=auto;html=1;" edge="1" parent="1" source="_X0evLW4YxpcTR7IITM4-36" target="_X0evLW4YxpcTR7IITM4-22">
          <mxGeometry relative="1" as="geometry" />
        </mxCell>
        <mxCell id="_X0evLW4YxpcTR7IITM4-36" value="&lt;span style=&quot;font-size: 14px;&quot;&gt;&lt;b&gt;End contest&lt;/b&gt;&lt;/span&gt;" style="rounded=0;whiteSpace=wrap;html=1;fillColor=#dae8fc;strokeColor=#6c8ebf;" vertex="1" parent="1">
          <mxGeometry x="920" y="340" width="120" height="40" as="geometry" />
        </mxCell>
        <mxCell id="_X0evLW4YxpcTR7IITM4-39" value="&lt;span style=&quot;font-size: 14px;&quot;&gt;&lt;b&gt;Admin profile updated&lt;/b&gt;&lt;/span&gt;" style="rounded=0;whiteSpace=wrap;html=1;fillColor=#dae8fc;strokeColor=#6c8ebf;" vertex="1" parent="1">
          <mxGeometry x="590" y="160" width="120" height="40" as="geometry" />
        </mxCell>
        <mxCell id="_X0evLW4YxpcTR7IITM4-41" value="&lt;span style=&quot;font-size: 14px;&quot;&gt;&lt;b&gt;Problem-setter profile updated&lt;/b&gt;&lt;/span&gt;" style="rounded=0;whiteSpace=wrap;html=1;fillColor=#dae8fc;strokeColor=#6c8ebf;" vertex="1" parent="1">
          <mxGeometry x="720" y="160" width="120" height="40" as="geometry" />
        </mxCell>
        <mxCell id="_X0evLW4YxpcTR7IITM4-45" value="" style="edgeStyle=orthogonalEdgeStyle;rounded=0;orthogonalLoop=1;jettySize=auto;html=1;" edge="1" parent="1" source="_X0evLW4YxpcTR7IITM4-43" target="_X0evLW4YxpcTR7IITM4-44">
          <mxGeometry relative="1" as="geometry" />
        </mxCell>
        <mxCell id="_X0evLW4YxpcTR7IITM4-47" style="edgeStyle=orthogonalEdgeStyle;rounded=0;orthogonalLoop=1;jettySize=auto;html=1;entryX=0.5;entryY=0;entryDx=0;entryDy=0;" edge="1" parent="1" source="_X0evLW4YxpcTR7IITM4-43" target="_X0evLW4YxpcTR7IITM4-46">
          <mxGeometry relative="1" as="geometry" />
        </mxCell>
        <mxCell id="_X0evLW4YxpcTR7IITM4-43" value="&lt;font style=&quot;font-size: 14px;&quot;&gt;&lt;b&gt;Knowledge Nexus&lt;/b&gt;&lt;/font&gt;" style="rounded=0;whiteSpace=wrap;html=1;fillColor=#fad9d5;strokeColor=#ae4132;" vertex="1" parent="1">
          <mxGeometry x="415" y="150" width="95" height="50" as="geometry" />
        </mxCell>
        <mxCell id="_X0evLW4YxpcTR7IITM4-44" value="&lt;font style=&quot;font-size: 14px;&quot;&gt;&lt;b&gt;Read, react, comment on blog&lt;/b&gt;&lt;/font&gt;" style="rounded=0;whiteSpace=wrap;html=1;fillColor=#fad9d5;strokeColor=#ae4132;" vertex="1" parent="1">
          <mxGeometry x="410" y="230" width="130" height="50" as="geometry" />
        </mxCell>
        <mxCell id="_X0evLW4YxpcTR7IITM4-46" value="&lt;font style=&quot;font-size: 14px;&quot;&gt;&lt;b&gt;Write blog&lt;/b&gt;&lt;/font&gt;" style="rounded=0;whiteSpace=wrap;html=1;fillColor=#fad9d5;strokeColor=#ae4132;" vertex="1" parent="1">
          <mxGeometry x="270" y="230" width="120" height="50" as="geometry" />
        </mxCell>
        <mxCell id="_X0evLW4YxpcTR7IITM4-49" value="&lt;font style=&quot;font-size: 14px;&quot;&gt;&lt;b&gt;Solution visualization&lt;/b&gt;&lt;/font&gt;" style="rounded=0;whiteSpace=wrap;html=1;fillColor=#fad9d5;strokeColor=#ae4132;" vertex="1" parent="1">
          <mxGeometry x="560" y="230" width="130" height="50" as="geometry" />
        </mxCell>
        <mxCell id="_X0evLW4YxpcTR7IITM4-50" style="edgeStyle=orthogonalEdgeStyle;rounded=0;orthogonalLoop=1;jettySize=auto;html=1;entryX=0.126;entryY=-0.02;entryDx=0;entryDy=0;entryPerimeter=0;" edge="1" parent="1" source="_X0evLW4YxpcTR7IITM4-43" target="_X0evLW4YxpcTR7IITM4-49">
          <mxGeometry relative="1" as="geometry" />
        </mxCell>
      </root>
    </mxGraphModel>
  </diagram>
</mxfile>
